<svg version="1.1" id="Layer_1" xmlns="http://www.w3.org/2000/svg" xmlns:xlink="http://www.w3.org/1999/xlink" x="0px" y="0px" width="100%" viewBox="0 0 500 500" enable-background="new 0 0 500 500" xml:space="preserve">
	<path fill="#FFFFFF" opacity="1.000000" stroke="none" d="
M459.000000,501.000000 
	C307.500031,501.000000 156.500061,500.983826 5.500177,501.093994 
	C1.751017,501.096710 0.903618,500.249725 0.906112,496.500061 
	C1.014954,332.833496 1.014940,169.166840 0.906176,5.500290 
	C0.903684,1.751452 1.749868,0.903597 5.499833,0.906091 
	C169.166382,1.014958 332.833038,1.014936 496.499603,0.906196 
	C500.248138,0.903706 501.096466,1.749470 501.093964,5.499714 
	C500.985077,169.166260 500.985077,332.832916 501.093781,496.499481 
	C501.096252,500.247742 500.263031,501.187195 496.498169,501.103210 
	C484.170807,500.828217 471.833496,501.000000 459.000000,501.000000 
z" />
	<path fill="#040404" opacity="1.000000" stroke="none" d="
M366.788422,256.747925 
	C371.236877,259.909760 375.682404,259.752045 380.791321,257.901337 
	C376.044586,269.909851 366.971741,275.991302 353.710846,275.968872 
	C311.822510,275.898010 269.934052,275.936676 228.045639,275.953125 
	C224.336166,275.954590 220.631744,276.100586 218.402161,272.275970 
	C215.970383,268.104553 217.833542,264.638672 220.513565,261.016052 
	C220.591080,260.451813 220.503387,260.081177 220.750381,259.456909 
	C226.364517,252.724777 230.193756,245.157837 234.914368,238.182693 
	C236.096802,236.435562 236.893021,234.876907 239.466827,236.211227 
	C240.855377,236.931091 242.435349,236.325195 243.387970,234.908142 
	C244.518250,233.226776 244.135101,231.560440 242.578186,230.554901 
	C240.538467,229.237549 241.888138,228.543365 242.863663,227.812683 
	C247.182602,224.577713 251.802017,222.001572 257.400482,221.999771 
	C301.854095,221.985428 346.307739,221.967392 390.761292,222.016586 
	C397.249878,222.023773 400.646423,227.792160 397.320892,233.463608 
	C393.061798,240.727188 388.336456,247.717392 382.888824,256.275757 
	C383.873840,248.956741 379.794159,247.600250 375.550385,246.325577 
	C374.395355,245.978622 372.452606,245.908310 372.993408,244.047699 
	C373.493530,242.326691 375.219727,243.050934 376.437958,243.303024 
	C377.563263,243.535904 378.607422,244.134399 379.718384,244.468597 
	C381.692932,245.062592 381.615570,243.177429 382.258850,242.228012 
	C383.063782,241.040070 382.272278,240.490967 381.259583,240.010818 
	C379.255615,239.060715 377.130737,238.733078 374.954742,238.756699 
	C371.277924,238.796631 367.771515,239.396927 366.897766,243.756561 
	C365.990784,248.282242 369.057800,249.924957 372.681427,250.997925 
	C373.475525,251.233063 374.255493,251.525497 375.022980,251.838211 
	C375.918640,252.203140 377.111023,252.535889 376.659241,253.813232 
	C376.273132,254.904831 375.065094,254.687805 374.092499,254.887970 
	C371.555786,255.410049 369.689270,251.550705 366.889130,254.223480 
	C366.703766,255.215057 366.448730,255.832413 366.788422,256.747925 
z" />
	<path fill="#0D0D0D" opacity="1.000000" stroke="none" d="
M211.003967,248.075012 
	C211.003952,251.224426 210.810059,253.908203 211.056290,256.550964 
	C211.323532,259.419464 210.214569,260.853546 207.518250,259.943176 
	C204.518723,258.930389 201.884918,259.330902 198.873245,259.981750 
	C194.262390,260.978210 191.289856,258.189789 190.856354,253.425903 
	C190.750961,252.267853 191.052307,251.019409 190.725220,249.947174 
	C190.211182,248.262054 192.508301,244.939606 188.679413,245.146866 
	C185.241409,245.333008 187.118561,248.436630 186.873688,250.208252 
	C186.557297,252.497055 186.633530,254.876999 186.838379,257.191345 
	C187.079041,259.910492 185.605545,260.098511 183.510895,260.065643 
	C181.517044,260.034393 179.877090,260.090698 180.114609,257.273529 
	C180.323822,254.792084 180.471924,252.223541 180.043747,249.800034 
	C179.772400,248.264114 181.963806,245.255829 178.397064,245.253922 
	C175.382736,245.252289 172.201355,245.932556 171.953506,249.986649 
	C171.811417,252.310837 171.764053,254.661865 171.947769,256.979126 
	C172.138947,259.390472 171.292389,260.221191 168.871201,260.079773 
	C166.762817,259.956604 164.974869,260.235901 165.138519,257.076080 
	C165.388092,252.257416 165.329193,247.411621 165.150009,242.586685 
	C165.063049,240.245026 166.048920,239.625916 168.059616,239.894501 
	C171.290359,240.326050 174.378006,240.734940 177.791550,240.214386 
	C179.765472,239.913361 179.881897,239.812744 180.285904,238.225174 
	C181.562149,233.210052 185.467194,230.909897 190.449829,232.202377 
	C191.503250,232.475647 193.570129,232.322601 192.995468,234.342026 
	C192.645935,235.570343 192.523453,237.606201 190.409607,237.339294 
	C188.528702,237.101791 186.585617,237.177185 187.029160,239.490280 
	C187.519852,242.049210 189.532349,240.493729 191.016327,240.177353 
	C196.675049,238.970963 197.156158,239.381714 197.162888,245.185226 
	C197.165024,247.017441 197.088531,248.857056 197.226074,250.679825 
	C197.374329,252.644699 198.141098,254.394516 200.437836,254.414291 
	C202.803940,254.434692 204.114807,252.974884 204.248444,250.649490 
	C204.391586,248.158569 204.565002,245.641586 204.360992,243.165985 
	C204.140228,240.486862 205.122314,239.777527 207.712982,239.801788 
	C210.208176,239.825165 211.421448,240.363235 211.040375,243.097992 
	C210.835419,244.568893 211.003967,246.091827 211.003967,248.075012 
z" />
	<path fill="#090909" opacity="1.000000" stroke="none" d="
M93.176964,238.533417 
	C89.884911,238.929642 86.881142,239.170166 83.901115,238.998489 
	C81.309372,238.849182 80.497475,239.663071 80.477509,242.313965 
	C80.456383,245.116928 81.894730,245.154709 83.890701,245.065994 
	C85.719666,244.984711 87.567238,245.181488 89.384575,245.015076 
	C91.554832,244.816360 92.223701,245.586945 92.268143,247.779816 
	C92.318909,250.284225 91.052299,250.472214 89.172653,250.325577 
	C88.179100,250.248093 87.150146,250.454102 86.179092,250.287613 
	C81.572975,249.497894 79.824242,251.386169 80.546898,255.940308 
	C80.960632,258.547638 80.569237,260.181183 77.032616,260.164703 
	C73.585854,260.148621 73.850624,258.423859 73.874306,256.150604 
	C73.940247,249.820526 74.027130,243.485367 73.834915,237.160446 
	C73.754959,234.529694 74.512245,233.716782 77.151146,233.826691 
	C82.140633,234.034500 87.144524,233.896698 92.522766,234.005310 
	C94.132050,235.326355 94.259796,236.698715 93.176964,238.533417 
z" />
	<path fill="#0B0B0B" opacity="1.000000" stroke="none" d="
M142.450378,242.840393 
	C144.801956,243.991653 145.439987,241.748245 146.754623,241.059052 
	C151.629990,238.503174 158.709396,239.554749 161.796310,243.490158 
	C164.932037,247.487778 164.610138,253.593018 161.075607,257.159637 
	C157.481064,260.786804 150.232208,261.212708 145.884598,258.165588 
	C141.314835,254.962692 142.094467,250.146301 141.416077,245.637970 
	C140.656982,245.391998 140.510956,245.052979 140.511703,244.384995 
	C140.712891,243.750458 140.929688,243.439590 141.428986,242.996368 
	C141.843796,242.780975 142.027603,242.733154 142.450378,242.840393 
z" />
	<path fill="#0B0B0B" opacity="1.000000" stroke="none" d="
M121.482925,243.091202 
	C121.839539,247.632721 121.757553,252.390778 122.033676,257.127960 
	C122.186485,259.749542 121.055321,260.479614 118.866798,259.988068 
	C115.852470,259.311035 112.963280,259.672577 109.942856,260.090912 
	C105.994453,260.637817 102.981316,258.931915 102.649033,254.540924 
	C102.314194,250.116211 105.070374,248.341385 109.068741,247.970993 
	C109.729698,247.909775 110.451210,248.087402 111.052719,247.883377 
	C112.408493,247.423508 115.018127,249.233307 114.987503,246.637909 
	C114.961281,244.415512 112.438805,244.451233 110.599548,244.617920 
	C109.456230,244.721512 108.257843,244.949524 107.229156,245.431259 
	C105.176819,246.392395 105.137878,244.694489 104.519409,243.638062 
	C103.694283,242.228592 104.365990,241.656326 105.607430,241.002945 
	C110.485481,238.435577 117.208466,239.373947 121.482925,243.091202 
z" />
	<path fill="#090909" opacity="1.000000" stroke="none" d="
M141.146774,243.938751 
	C140.946320,244.547165 140.948669,244.869949 140.932800,245.434753 
	C139.655716,249.253311 138.288574,252.798767 137.155457,256.417480 
	C136.392899,258.852783 135.432343,260.160980 132.414917,260.168579 
	C129.323441,260.176331 128.554199,258.702972 127.734215,256.318939 
	C126.173088,251.780151 124.332420,247.337479 122.189903,242.869141 
	C121.771980,242.883377 121.835220,242.936661 121.860558,242.966034 
	C122.589897,241.924393 121.147804,239.342453 124.160751,239.878098 
	C125.963341,240.198563 128.217606,239.070969 128.979050,242.037354 
	C129.908554,245.658508 131.143646,249.201218 132.555099,253.778320 
	C133.938339,249.294891 135.140076,245.857422 136.034531,242.341766 
	C136.643753,239.947128 138.183228,239.683395 140.153320,239.903152 
	C141.443359,240.047058 143.558228,239.248550 142.680893,242.502747 
	C142.689362,242.995438 142.631516,242.845200 142.594025,242.883560 
	C142.104645,243.079651 141.702499,243.318893 141.146774,243.938751 
z" />
	<path fill="#161616" opacity="1.000000" stroke="none" d="
M220.931732,258.753937 
	C220.987656,259.638153 221.024414,260.038544 220.947647,260.610718 
	C214.072495,260.931366 213.580826,256.821899 214.028763,251.450241 
	C214.455246,246.335876 214.196777,241.156433 214.087433,236.008820 
	C214.035583,233.568542 214.169357,231.978699 217.418747,232.009613 
	C220.433517,232.038345 220.975601,233.192596 220.929016,235.844345 
	C220.797684,243.317383 220.901443,250.794571 220.931732,258.753937 
z" />
	<path fill="#040404" opacity="1.000000" stroke="none" d="
M94.574646,233.292023 
	C101.001259,231.397293 101.003349,231.397293 101.005783,237.594620 
	C101.008331,244.049576 100.915840,250.506500 101.054665,256.958466 
	C101.104111,259.256439 100.564079,260.213837 98.074615,260.072906 
	C95.927521,259.951324 94.312767,260.115753 94.445053,257.051025 
	C94.687500,251.434158 94.510857,245.799210 94.494179,239.721924 
	C93.904121,237.431854 93.863472,235.590515 94.574646,233.292023 
z" />
	<path fill="#8C8C8C" opacity="1.000000" stroke="none" d="
M94.420723,232.958679 
	C94.740265,234.695618 94.799004,236.555008 94.668579,238.843231 
	C94.131012,239.151611 93.782616,239.031174 93.156296,238.889435 
	C92.886360,237.545929 92.894348,236.223724 92.902710,234.504791 
	C93.322037,233.765778 93.740982,233.423462 94.420723,232.958679 
z" />
	<path fill="#F3F3F3" opacity="1.000000" stroke="none" d="
M381.093323,257.852753 
	C381.066040,257.081390 381.158081,256.453888 381.966217,256.395905 
	C382.169769,256.381287 382.607758,256.820496 382.581818,256.872040 
	C382.397156,257.239319 382.120087,257.560089 381.605591,257.898132 
	C381.338806,257.900635 381.112152,257.969727 381.093323,257.852753 
z" />
	<path fill="#F3F3F3" opacity="1.000000" stroke="none" d="
M366.996887,256.591217 
	C365.584015,256.744568 365.965729,255.845764 366.552734,254.777161 
	C366.885254,255.116287 366.938599,255.651840 366.996887,256.591217 
z" />
	<path fill="#F5F5F5" opacity="1.000000" stroke="none" d="
M346.381500,243.235748 
	C346.713287,241.697556 344.288910,239.587784 346.817871,239.085251 
	C349.008087,238.650024 351.807770,237.961273 352.801727,241.562149 
	C353.678741,244.739258 355.021484,247.787796 356.584229,252.055481 
	C357.721497,248.589111 358.749878,246.224899 359.251953,243.753754 
	C360.124420,239.459671 362.440399,237.921356 366.905670,239.288467 
	C364.485596,247.147675 361.418579,254.793060 358.009644,262.274567 
	C356.142456,266.372589 352.371063,267.146729 348.232208,266.037598 
	C347.092377,265.732147 345.272430,265.505310 345.758820,263.816254 
	C346.149933,262.458038 346.451843,260.414581 348.893494,260.758972 
	C354.207306,261.508331 353.475677,258.655426 352.031525,255.387680 
	C350.756897,252.503510 349.527405,249.599396 348.128967,246.379303 
	C347.157257,245.387451 346.965576,244.372284 346.381500,243.235748 
z" />
	<path fill="#F5F5F5" opacity="1.000000" stroke="none" d="
M267.467712,244.307922 
	C268.523468,242.333771 266.265747,239.545227 269.355743,239.021194 
	C271.940063,238.582932 274.798401,238.282303 274.184235,242.684814 
	C273.843353,245.128174 274.072571,247.672211 274.238068,250.158005 
	C274.359222,251.977905 275.345123,253.400436 277.323944,253.463120 
	C279.397278,253.528809 280.909576,252.437790 281.106781,250.294754 
	C281.349945,247.652588 281.479156,244.975082 281.339417,242.329666 
	C281.206207,239.808105 281.902588,238.811127 284.631073,238.843872 
	C287.156128,238.874207 288.158020,239.428665 288.014221,242.149429 
	C287.786102,246.464294 287.604584,250.836090 288.046448,255.117432 
	C288.540588,259.905365 285.255798,259.831970 282.931976,258.766998 
	C280.648041,257.720337 279.273804,258.291077 277.229492,258.815979 
	C272.879517,259.932831 269.298767,258.706543 267.902283,253.430176 
	C266.127625,250.394730 266.402161,247.581833 267.467712,244.307922 
z" />
	<path fill="#F3F3F3" opacity="1.000000" stroke="none" d="
M266.194580,253.825104 
	C259.951965,261.229401 249.165146,260.747101 245.957123,253.110825 
	C243.959045,248.354599 245.515106,243.000229 249.652298,240.395889 
	C254.608704,237.275864 261.173615,238.502914 265.861755,243.683075 
	C268.171509,246.402664 267.384277,249.311111 267.056366,252.346863 
	C266.720490,252.605774 266.639221,252.673355 266.597717,252.706085 
	C266.684448,253.078934 266.632904,253.382202 266.194580,253.825104 
z" />
	<path fill="#F5F5F5" opacity="1.000000" stroke="none" d="
M346.257629,245.786560 
	C347.516815,249.282227 347.290894,251.168869 343.056183,250.841904 
	C339.815125,250.591675 336.539307,250.792175 332.760254,250.792175 
	C334.664703,254.762405 337.509125,254.959702 340.119110,253.627045 
	C342.448547,252.437637 343.816376,253.292587 344.602295,254.937286 
	C345.706055,257.247162 343.233063,257.517365 341.948975,258.123749 
	C336.366302,260.760071 329.706299,258.754822 327.158844,253.810974 
	C324.572571,248.791779 326.356384,242.629501 331.154419,240.008057 
	C336.283051,237.205994 342.350677,238.824860 345.619843,243.843277 
	C346.350403,244.346863 346.512543,244.851273 346.257629,245.786560 
z" />
	<path fill="#FCFCFC" opacity="1.000000" stroke="none" d="
M321.104980,258.994446 
	C318.826599,259.111938 318.959778,257.846649 318.961395,256.665161 
	C318.964844,254.170486 318.935577,251.675507 318.966400,249.181229 
	C318.998688,246.570343 318.261078,244.323883 315.257446,244.383377 
	C312.437256,244.439224 311.360779,246.623703 311.209320,249.180969 
	C311.091492,251.169907 311.094727,253.175583 311.199493,255.165634 
	C311.323029,257.511047 311.345428,259.124603 307.993805,259.134521 
	C304.511444,259.144806 304.854950,257.301178 304.882446,255.081345 
	C304.933960,250.924332 305.123566,246.747009 304.797150,242.614349 
	C304.539490,239.352753 306.149750,237.793243 308.619965,239.119263 
	C311.705994,240.775894 314.023895,239.403412 316.765625,238.920120 
	C321.679260,238.053986 324.815491,240.661469 325.137909,245.661957 
	C325.351532,248.975281 325.012573,252.328873 325.300049,255.631424 
	C325.567474,258.703613 324.178314,259.379700 321.104980,258.994446 
z" />
	<path fill="#EFEFEF" opacity="1.000000" stroke="none" d="
M235.891251,266.467590 
	C234.106781,265.902161 231.683304,266.737793 231.734833,264.240906 
	C231.772629,262.408478 232.443344,260.770996 235.115173,261.081726 
	C237.419174,261.349640 237.019669,259.260559 237.032669,257.863312 
	C237.082214,252.541870 237.189056,247.214737 236.994888,241.899948 
	C236.902908,239.382034 237.804962,238.803085 240.133041,238.859741 
	C242.404648,238.915024 243.887527,239.011948 243.763321,241.997025 
	C243.535339,247.475815 243.695541,252.970764 243.694672,258.458984 
	C243.693893,263.413483 241.478500,266.323303 235.891251,266.467590 
z" />
	<path fill="#EFEFEF" opacity="1.000000" stroke="none" d="
M291.016296,254.826050 
	C291.016266,250.537094 290.998749,246.727493 291.021179,242.918137 
	C291.043793,239.077682 293.731995,237.077713 296.774750,239.362839 
	C298.681610,240.794891 299.258667,240.078247 300.627960,239.441498 
	C301.720154,238.933609 303.444489,237.966858 303.971527,239.701218 
	C304.379486,241.043579 305.063995,243.832687 303.280823,244.103531 
	C295.873047,245.228683 297.497711,250.752640 297.697144,255.228729 
	C297.864044,258.974609 296.113647,259.088806 293.289886,259.085175 
	C290.056091,259.081024 291.266388,256.854462 291.016296,254.826050 
z" />
	<path fill="#4D4D4D" opacity="1.000000" stroke="none" d="
M266.978363,252.767365 
	C267.010529,249.953491 267.529724,247.282486 266.064880,244.374054 
	C266.414856,243.945175 266.779999,243.914688 267.422668,243.885437 
	C267.796478,246.644379 267.892792,249.402100 267.909058,252.613342 
	C267.631409,253.020920 267.433838,252.974930 266.978363,252.767365 
z" />
	<path fill="#EFEFEF" opacity="1.000000" stroke="none" d="
M346.375610,246.089890 
	C346.036438,245.650772 346.014160,245.154266 345.981018,244.285156 
	C345.970123,243.912552 346.011841,243.434448 346.108490,243.214813 
	C347.662018,243.138443 348.036530,244.091003 347.979248,245.710739 
	C347.550812,246.047195 347.121643,246.039841 346.375610,246.089890 
z" />
	<path fill="#4D4D4D" opacity="1.000000" stroke="none" d="
M266.222168,253.845795 
	C266.054596,253.676727 266.091187,253.345657 266.342041,252.876709 
	C266.512939,253.053818 266.469635,253.368805 266.222168,253.845795 
z" />
	<path fill="#F3F3F3" opacity="1.000000" stroke="none" d="
M149.583923,246.418701 
	C154.522552,244.002441 157.529175,245.698273 157.267441,250.352676 
	C157.122940,252.922195 156.105270,254.880356 153.224472,255.072037 
	C150.050217,255.283234 148.746078,253.248550 148.510483,250.512100 
	C148.404007,249.275177 149.028381,247.975342 149.583923,246.418701 
z" />
	<path fill="#FFFFFF" opacity="1.000000" stroke="none" d="
M141.423157,244.425995 
	C141.211884,243.811752 141.488495,243.399094 142.160828,242.954178 
	C142.847488,243.682007 142.626251,244.248245 141.423157,244.425995 
z" />
	<path fill="#EFEFEF" opacity="1.000000" stroke="none" d="
M110.415054,251.562561 
	C112.406258,251.587753 114.585953,250.169632 115.405457,252.602417 
	C115.744110,253.607742 114.839996,254.714203 113.684288,255.293152 
	C112.279099,255.997131 110.824501,256.408234 109.586334,255.237839 
	C108.278923,254.002014 108.278770,252.676590 110.415054,251.562561 
z" />
	<path fill="#090909" opacity="1.000000" stroke="none" d="
M260.347839,250.507843 
	C259.193329,254.126526 256.795197,254.937775 254.037491,253.573929 
	C251.414383,252.276672 251.396820,249.545853 252.037323,247.035477 
	C252.588547,244.875153 254.185303,243.668503 256.461304,243.960510 
	C260.123871,244.430405 260.679504,247.071487 260.347839,250.507843 
z" />
	<path fill="#161616" opacity="1.000000" stroke="none" d="
M337.854919,243.306259 
	C339.433929,244.144821 340.971954,245.296722 340.006989,246.454971 
	C338.662964,248.068161 336.315674,246.950378 334.412231,247.130386 
	C333.463226,247.220154 332.688812,246.742172 333.110809,245.703323 
	C333.879211,243.811813 335.401642,242.964691 337.854919,243.306259 
z" />
</svg>
